<svg class="css-1l4w7hg e1xnikn40" role="img" viewBox="0 0 100 107" fill="currentColor" xmlns="http://www.w3.org/2000/svg"><title>Thesaurus.com</title><path d="M68.5398 105.395C68.5397 105.602 68.485 105.805 68.3812 105.984C68.2774 106.163 68.1281 106.311 67.9483 106.415C67.7686 106.518 67.5648 106.572 67.3574 106.572C67.1499 106.572 66.9462 106.517 66.7668 106.413L61.368 103.286L30.8281 85.6461C30.6131 85.5217 30.4346 85.3433 30.3103 85.1288C30.186 84.9142 30.1202 84.671 30.1195 84.4232V84.3774C30.118 84.3652 30.118 84.3529 30.1195 84.3407V44.7171C30.1076 44.3753 29.9632 44.0515 29.7166 43.8138C29.47 43.576 29.1405 43.4428 28.7974 43.4422H1.63486C1.2826 43.4422 0.944757 43.3028 0.695668 43.0545C0.446578 42.8063 0.306641 42.4696 0.306641 42.1185V1.75197C0.306641 1.40089 0.446578 1.06419 0.695668 0.815938C0.944757 0.567688 1.2826 0.428223 1.63486 0.428223H98.3649C98.7172 0.428223 99.055 0.567688 99.3041 0.815938C99.5532 1.06419 99.6931 1.40089 99.6931 1.75197V42.1063C99.6931 42.4573 99.5532 42.794 99.3041 43.0423C99.055 43.2905 98.7172 43.43 98.3649 43.43H86.0704C85.7266 43.4292 85.397 43.2927 85.1538 43.0503C84.9107 42.808 84.7737 42.4795 84.7729 42.1368V22.2654C84.7731 21.9461 84.6598 21.6371 84.4532 21.3931C84.2465 21.1491 83.9599 20.9859 83.6441 20.9325L49.1962 15.0505C49.0182 15.0218 48.8358 15.0564 48.6809 15.1484C48.526 15.2404 48.4086 15.3838 48.3493 15.5535C48.2899 15.7232 48.2925 15.9083 48.3565 16.0763C48.4205 16.2443 48.5419 16.3844 48.6993 16.4721L67.7913 26.9031C68.0233 27.03 68.2168 27.2167 68.3517 27.4436C68.4866 27.6706 68.5579 27.9294 68.5582 28.1932V43.4422L68.5398 105.395Z" fill="currentColor"/></svg>